<svg width="900" height="600" viewBox="0 0 900 600" fill="none" xmlns="http://www.w3.org/2000/svg">
<g clip-path="url(#clip0_403_9362)">
<path d="M0 0H900V600H0V0Z" fill="white"/>
<path d="M0 0H900V200H0V0Z" fill="#FF6820"/>
<path d="M0 400H900V600H0V400Z" fill="#046A38"/>
<path d="M450 392.5C501.086 392.5 542.5 351.086 542.5 300C542.5 248.914 501.086 207.5 450 207.5C398.914 207.5 357.5 248.914 357.5 300C357.5 351.086 398.914 392.5 450 392.5Z" fill="#07038D"/>
<path d="M450 380C494.183 380 530 344.183 530 300C530 255.817 494.183 220 450 220C405.817 220 370 255.817 370 300C370 344.183 405.817 380 450 380Z" fill="white"/>
<path d="M450 316C458.837 316 466 308.837 466 300C466 291.163 458.837 284 450 284C441.163 284 434 291.163 434 300C434 308.837 441.163 316 450 316Z" fill="#07038D"/>
<path d="M450 220L453 268.141L450 291.976L447 268.141L450 220Z" fill="#07038D"/>
<path d="M459.985 224.155C461.902 224.407 463.66 223.058 463.912 221.142C464.164 219.225 462.815 217.467 460.899 217.215C458.982 216.962 457.224 218.311 456.972 220.228C456.72 222.144 458.069 223.902 459.985 224.155Z" fill="#07038D"/>
<path d="M450 380.001L447 331.86L450 308.024L453 331.86L450 380.001Z" fill="#07038D"/>
<path d="M440.015 375.846C438.098 375.594 436.34 376.943 436.088 378.859C435.836 380.776 437.185 382.534 439.101 382.786C441.018 383.039 442.776 381.69 443.028 379.773C443.28 377.857 441.931 376.099 440.015 375.846Z" fill="#07038D"/>
<path d="M470.705 222.726L461.143 270.003L452.076 292.25L455.347 268.45L470.705 222.726Z" fill="#07038D"/>
<path d="M479.275 229.323C481.061 230.063 483.108 229.215 483.848 227.429C484.588 225.643 483.74 223.596 481.954 222.856C480.168 222.116 478.121 222.964 477.381 224.75C476.641 226.536 477.489 228.583 479.275 229.323Z" fill="#07038D"/>
<path d="M429.294 377.274L438.856 329.997L447.923 307.75L444.652 331.55L429.294 377.274Z" fill="#07038D"/>
<path d="M420.724 370.677C418.938 369.937 416.891 370.785 416.151 372.571C415.411 374.357 416.259 376.404 418.045 377.144C419.831 377.884 421.878 377.036 422.618 375.25C423.358 373.464 422.51 371.417 420.724 370.677Z" fill="#07038D"/>
<path d="M490 230.718L468.528 273.909L454.012 293.051L463.331 270.909L490 230.718Z" fill="#07038D"/>
<path d="M496.57 239.309C498.104 240.486 500.301 240.197 501.477 238.663C502.654 237.13 502.365 234.932 500.831 233.756C499.298 232.579 497.101 232.868 495.924 234.402C494.747 235.935 495.037 238.132 496.57 239.309Z" fill="#07038D"/>
<path d="M410 369.282L431.472 326.091L445.988 306.949L436.668 329.091L410 369.282Z" fill="#07038D"/>
<path d="M403.429 360.691C401.896 359.514 399.699 359.803 398.522 361.337C397.345 362.87 397.635 365.068 399.168 366.244C400.702 367.421 402.899 367.132 404.075 365.598C405.252 364.065 404.963 361.868 403.429 360.691Z" fill="#07038D"/>
<path d="M506.568 243.432L474.649 279.594L455.673 294.327L470.406 275.351L506.568 243.432Z" fill="#07038D"/>
<path d="M510.691 253.43C511.868 254.963 514.065 255.252 515.599 254.076C517.132 252.899 517.422 250.702 516.245 249.168C515.068 247.635 512.871 247.346 511.338 248.522C509.804 249.699 509.515 251.896 510.691 253.43Z" fill="#07038D"/>
<path d="M393.431 356.568L425.351 320.406L444.326 305.673L429.593 324.649L393.431 356.568Z" fill="#07038D"/>
<path d="M389.308 346.57C388.131 345.037 385.934 344.748 384.401 345.924C382.867 347.101 382.578 349.298 383.755 350.832C384.931 352.365 387.128 352.654 388.662 351.478C390.196 350.301 390.485 348.104 389.308 346.57Z" fill="#07038D"/>
<path d="M519.282 260L479.091 286.669L456.949 295.989L476.091 281.473L519.282 260Z" fill="#07038D"/>
<path d="M520.677 270.725C521.417 272.511 523.464 273.359 525.25 272.619C527.036 271.879 527.884 269.832 527.144 268.046C526.404 266.26 524.357 265.412 522.571 266.152C520.785 266.892 519.937 268.939 520.677 270.725Z" fill="#07038D"/>
<path d="M380.718 340.001L420.91 313.332L443.052 304.012L423.91 318.528L380.718 340.001Z" fill="#07038D"/>
<path d="M379.324 329.276C378.584 327.49 376.536 326.642 374.751 327.382C372.965 328.122 372.117 330.169 372.856 331.955C373.596 333.741 375.644 334.589 377.429 333.849C379.215 333.109 380.063 331.062 379.324 329.276Z" fill="#07038D"/>
<path d="M527.275 279.294L481.55 294.652L457.751 297.923L479.998 288.856L527.275 279.294Z" fill="#07038D"/>
<path d="M525.846 290.015C526.098 291.931 527.856 293.28 529.773 293.028C531.689 292.776 533.038 291.017 532.786 289.101C532.534 287.184 530.776 285.835 528.859 286.088C526.943 286.34 525.594 288.098 525.846 290.015Z" fill="#07038D"/>
<path d="M372.726 320.706L418.45 305.348L442.25 302.077L420.003 311.144L372.726 320.706Z" fill="#07038D"/>
<path d="M374.155 309.985C373.902 308.069 372.144 306.72 370.228 306.972C368.311 307.224 366.962 308.983 367.215 310.899C367.467 312.816 369.225 314.165 371.141 313.912C373.058 313.66 374.407 311.902 374.155 309.985Z" fill="#07038D"/>
<path d="M530 300L481.859 303L458.024 300L481.859 297L530 300Z" fill="#07038D"/>
<path d="M525.846 309.985C525.593 311.902 526.942 313.66 528.859 313.912C530.775 314.164 532.534 312.815 532.786 310.899C533.038 308.982 531.689 307.224 529.773 306.972C527.856 306.72 526.098 308.069 525.846 309.985Z" fill="#07038D"/>
<path d="M370 300L418.141 297L441.977 300L418.141 303L370 300Z" fill="#07038D"/>
<path d="M374.155 290.015C374.407 288.098 373.058 286.34 371.142 286.088C369.225 285.836 367.467 287.185 367.215 289.101C366.962 291.018 368.311 292.776 370.228 293.028C372.144 293.28 373.902 291.931 374.155 290.015Z" fill="#07038D"/>
<path d="M527.274 320.706L479.997 311.144L457.75 302.077L481.55 305.349L527.274 320.706Z" fill="#07038D"/>
<path d="M520.677 329.275C519.937 331.061 520.785 333.109 522.571 333.848C524.357 334.588 526.404 333.74 527.144 331.954C527.884 330.168 527.036 328.121 525.25 327.381C523.464 326.642 521.417 327.49 520.677 329.275Z" fill="#07038D"/>
<path d="M372.726 279.295L420.003 288.857L442.25 297.923L418.45 294.652L372.726 279.295Z" fill="#07038D"/>
<path d="M379.323 270.725C380.063 268.94 379.215 266.892 377.429 266.153C375.643 265.413 373.596 266.261 372.856 268.047C372.116 269.833 372.964 271.88 374.75 272.62C376.536 273.359 378.583 272.511 379.323 270.725Z" fill="#07038D"/>
<path d="M519.282 340L476.09 318.528L456.948 304.012L479.09 313.332L519.282 340Z" fill="#07038D"/>
<path d="M510.691 346.57C509.515 348.104 509.804 350.301 511.337 351.477C512.871 352.654 515.068 352.365 516.245 350.831C517.422 349.298 517.132 347.101 515.599 345.924C514.065 344.747 511.868 345.037 510.691 346.57Z" fill="#07038D"/>
<path d="M380.718 260.001L423.909 281.473L443.051 295.989L420.909 286.669L380.718 260.001Z" fill="#07038D"/>
<path d="M389.308 253.431C390.485 251.897 390.196 249.7 388.662 248.523C387.129 247.347 384.931 247.636 383.755 249.17C382.578 250.703 382.867 252.9 384.401 254.077C385.934 255.254 388.131 254.964 389.308 253.431Z" fill="#07038D"/>
<path d="M506.568 356.569L470.406 324.649L455.673 305.674L474.649 320.407L506.568 356.569Z" fill="#07038D"/>
<path d="M496.57 360.691C495.036 361.868 494.747 364.065 495.924 365.599C497.101 367.132 499.298 367.422 500.831 366.245C502.365 365.068 502.654 362.871 501.477 361.338C500.301 359.804 498.103 359.515 496.57 360.691Z" fill="#07038D"/>
<path d="M393.431 243.431L429.593 275.351L444.326 294.326L425.351 279.593L393.431 243.431Z" fill="#07038D"/>
<path d="M403.43 239.309C404.963 238.132 405.252 235.935 404.076 234.401C402.899 232.868 400.702 232.578 399.168 233.755C397.635 234.932 397.346 237.129 398.522 238.662C399.699 240.196 401.896 240.485 403.43 239.309Z" fill="#07038D"/>
<path d="M490 369.283L463.332 329.092L454.012 306.95L468.528 326.092L490 369.283Z" fill="#07038D"/>
<path d="M479.275 370.678C477.489 371.418 476.641 373.465 477.381 375.251C478.121 377.037 480.168 377.885 481.954 377.145C483.74 376.405 484.588 374.358 483.848 372.572C483.108 370.786 481.061 369.938 479.275 370.678Z" fill="#07038D"/>
<path d="M409.999 230.718L436.668 270.909L445.988 293.051L431.472 273.909L409.999 230.718Z" fill="#07038D"/>
<path d="M420.724 229.323C422.51 228.583 423.358 226.536 422.619 224.75C421.879 222.964 419.831 222.116 418.046 222.856C416.26 223.596 415.412 225.643 416.151 227.429C416.891 229.215 418.939 230.063 420.724 229.323Z" fill="#07038D"/>
<path d="M470.706 377.275L455.348 331.55L452.077 307.751L461.144 329.998L470.706 377.275Z" fill="#07038D"/>
<path d="M459.985 375.846C458.069 376.098 456.72 377.856 456.972 379.773C457.224 381.689 458.983 383.038 460.899 382.786C462.816 382.534 464.165 380.776 463.912 378.859C463.66 376.943 461.902 375.594 459.985 375.846Z" fill="#07038D"/>
<path d="M429.295 222.726L444.652 268.451L447.924 292.25L438.857 270.003L429.295 222.726Z" fill="#07038D"/>
<path d="M440.015 224.155C441.932 223.903 443.281 222.145 443.028 220.228C442.776 218.312 441.018 216.963 439.101 217.215C437.185 217.467 435.836 219.225 436.088 221.142C436.34 223.058 438.099 224.407 440.015 224.155Z" fill="#07038D"/>
</g>
<defs>
<clipPath id="clip0_403_9362">
<rect width="900" height="600" fill="white"/>
</clipPath>
</defs>
</svg>
